<svg width="79" height="79" viewBox="0 0 79 79" fill="none" xmlns="http://www.w3.org/2000/svg">
<g clip-path="url(#clip0_75_363)">
<path d="M5.372 68.057C8.3424 68.057 10.7519 70.506 10.7519 73.5317C10.7519 76.5534 8.3424 79.0064 5.37595 79.0064C2.40555 79.0064 0 76.5574 0 73.5317C0 70.5099 2.4095 68.061 5.372 68.061V68.057ZM66.2929 68.057C69.2633 68.057 71.6648 70.506 71.6648 73.5317C71.6648 76.5534 69.2633 79.0064 66.2929 79.0064C63.3264 79.0064 60.9208 76.5574 60.9208 73.5317C60.9208 70.5099 63.3264 68.061 66.2929 68.061V68.057ZM78.8894 1.9656C79.0931 2.65698 79.0168 3.40076 78.6768 4.03632C78.3368 4.67189 77.7606 5.14827 77.0724 5.3626C74.2521 6.21185 72.4193 7.2823 71.5227 8.45545C70.5786 9.6918 70.0611 11.2046 69.9703 12.9229V50.6888C69.8123 55.0891 68.7971 58.5572 66.8182 61.0378C64.7602 63.629 61.6002 65.0866 57.2434 65.5092H14.0225C10.1633 65.5092 6.9757 64.502 4.5583 62.4203C2.1409 60.3387 0.6478 57.3248 0.03555 53.4933L0 53.0549V29.5919C0.1817 25.5234 1.45755 22.1659 3.85915 19.6537C6.3042 17.1059 9.717 15.8024 14.0225 15.6839H51.6186C53.1038 15.6839 54.3046 16.9084 54.3046 18.4173C54.3109 19.1364 54.0316 19.8285 53.528 20.3418C53.0244 20.855 52.3376 21.1474 51.6186 21.1547H14.0936C11.1706 21.2337 9.0929 22.0276 7.70645 23.4773C6.28445 24.9625 5.49445 27.0362 5.37595 29.7143V52.8218C5.81045 55.3261 6.70315 57.0918 8.03035 58.2333C9.3931 59.4104 11.3562 60.0306 14.0225 60.0306L56.9787 60.0424C59.7477 59.7659 61.5844 58.9206 62.643 57.5855C63.7885 56.1477 64.4759 53.7935 64.5944 50.5822V12.7807C64.7444 9.83005 65.6372 7.23885 67.2803 5.0861C68.9749 2.8741 71.7478 1.2546 75.5517 0.109096C75.8922 0.00912563 76.2492 -0.0222683 76.6019 0.0167335C76.9546 0.0557352 77.2961 0.164357 77.6066 0.336304C77.9171 0.508251 78.1903 0.740104 78.4105 1.01843C78.6307 1.29675 78.7935 1.61601 78.8894 1.9577V1.9656ZM51.6186 45.5736C53.1038 45.5736 54.3046 46.7981 54.3046 48.307C54.3109 49.026 54.0316 49.7182 53.528 50.2314C53.0244 50.7447 52.3376 51.037 51.6186 51.0443H18.798C18.079 51.037 17.3923 50.7447 16.8887 50.2314C16.3851 49.7182 16.1057 49.026 16.112 48.307C16.112 46.7941 17.3168 45.5696 18.798 45.5696H51.6186V45.5736ZM51.6186 30.9744C53.1038 30.9744 54.3046 32.1989 54.3046 33.7117C54.3109 34.4308 54.0316 35.1229 53.528 35.6362C53.0244 36.1494 52.3376 36.4418 51.6186 36.4491H18.798C18.079 36.4418 17.3923 36.1494 16.8887 35.6362C16.3851 35.1229 16.1057 34.4308 16.112 33.7117C16.112 32.2028 17.3168 30.9744 18.798 30.9744H51.6186Z" fill="white"/>
</g>
<defs>
<clipPath id="clip0_75_363">
<rect width="79" height="79" fill="white"/>
</clipPath>
</defs>
</svg>
