<svg width="39" height="39" viewBox="0 0 39 39" fill="none" xmlns="http://www.w3.org/2000/svg">
<g clip-path="url(#clip0_197_101)">
<path d="M3.45317 33.0225C4.86417 33.0225 6.00873 34.1858 6.00873 35.6231C6.00873 37.0585 4.86417 38.2237 3.45505 38.2237C2.04405 38.2237 0.901367 37.0604 0.901367 35.6231C0.901367 34.1877 2.04593 33.0244 3.45317 33.0244V33.0225ZM32.3918 33.0225C33.8028 33.0225 34.9436 34.1858 34.9436 35.6231C34.9436 37.0585 33.8028 38.2237 32.3918 38.2237C30.9827 38.2237 29.84 37.0604 29.84 35.6231C29.84 34.1877 30.9827 33.0244 32.3918 33.0244V33.0225ZM38.3754 1.6278C38.4722 1.95622 38.4359 2.30953 38.2744 2.61144C38.1129 2.91335 37.8392 3.13963 37.5123 3.24144C36.1726 3.64485 35.302 4.15334 34.876 4.71061C34.4276 5.2979 34.1818 6.01653 34.1386 6.83274V24.7723C34.0636 26.8625 33.5814 28.51 32.6413 29.6883C31.6638 30.9192 30.1627 31.6115 28.0931 31.8123H7.56233C5.72916 31.8123 4.21496 31.3338 3.06665 30.345C1.91834 29.3562 1.20909 27.9245 0.918254 26.1045L0.901367 25.8962V14.7508C0.987678 12.8182 1.59373 11.2233 2.73454 10.03C3.89599 8.81977 5.51713 8.20058 7.56233 8.14429H25.4212C26.1267 8.14429 26.6971 8.72595 26.6971 9.44271C26.7001 9.78426 26.5674 10.113 26.3282 10.3568C26.089 10.6007 25.7628 10.7395 25.4212 10.743H7.59611C6.20762 10.7805 5.22067 11.1577 4.56208 11.8463C3.88661 12.5518 3.51134 13.5369 3.45505 14.809V25.7855C3.66145 26.9751 4.0855 27.8138 4.71594 28.3561C5.36328 28.9152 6.29581 29.2098 7.56233 29.2098L27.9674 29.2155C29.2827 29.0841 30.1552 28.6826 30.6581 28.0484C31.2022 27.3654 31.5287 26.2471 31.585 24.7216V6.76519C31.6563 5.36357 32.0803 4.1327 32.8609 3.1101C33.6658 2.05936 34.983 1.29006 36.7899 0.745927C36.9517 0.698439 37.1212 0.683526 37.2888 0.702053C37.4564 0.720579 37.6186 0.772177 37.766 0.853855C37.9135 0.935533 38.0433 1.04567 38.1479 1.17788C38.2525 1.31009 38.3298 1.46174 38.3754 1.62405V1.6278ZM25.4212 22.3425C26.1267 22.3425 26.6971 22.9241 26.6971 23.6409C26.7001 23.9824 26.5674 24.3112 26.3282 24.555C26.089 24.7988 25.7628 24.9377 25.4212 24.9412H9.83081C9.48926 24.9377 9.16305 24.7988 8.92382 24.555C8.68459 24.3112 8.55191 23.9824 8.55491 23.6409C8.55491 22.9222 9.12719 22.3406 9.83081 22.3406H25.4212V22.3425ZM25.4212 15.4076C26.1267 15.4076 26.6971 15.9892 26.6971 16.7079C26.7001 17.0494 26.5674 17.3782 26.3282 17.622C26.089 17.8658 25.7628 18.0047 25.4212 18.0081H9.83081C9.48926 18.0047 9.16305 17.8658 8.92382 17.622C8.68459 17.3782 8.55191 17.0494 8.55491 16.7079C8.55491 15.9911 9.12719 15.4076 9.83081 15.4076H25.4212V15.4076Z" fill="black"/>
</g>
<defs>
<clipPath id="clip0_197_101">
<rect width="37.5266" height="37.5266" fill="white" transform="translate(0.901367 0.693848)"/>
</clipPath>
</defs>
</svg>
