<svg width="40" height="37" viewBox="0 0 40 37" fill="none" xmlns="http://www.w3.org/2000/svg">
<path d="M31.5554 22.7645C30.7373 21.9811 29.7504 21.5623 28.7045 21.5623C27.667 21.5623 26.6717 21.9734 25.8198 22.7567L23.1544 25.1999C22.9351 25.0913 22.7158 24.9905 22.5049 24.8897C22.2013 24.7501 21.9145 24.6182 21.6699 24.4786C19.1732 23.0204 16.9042 21.1202 14.7281 18.6615C13.6737 17.436 12.9652 16.4045 12.4507 15.3574C13.1423 14.7757 13.7834 14.1707 14.4076 13.589C14.6437 13.3718 14.8799 13.1469 15.1161 12.9297C16.8874 11.301 16.8874 9.1913 15.1161 7.56252L12.8134 5.4451C12.5519 5.20466 12.282 4.95647 12.0289 4.70827C11.5229 4.22739 10.9915 3.731 10.4432 3.26564C9.62504 2.52105 8.64661 2.12549 7.61757 2.12549C6.58852 2.12549 5.59322 2.52105 4.74974 3.26564C4.74131 3.27339 4.74131 3.27339 4.73287 3.28115L1.86505 5.94149C0.785402 6.93428 0.169664 8.14423 0.0347078 9.54808C-0.167727 11.8129 0.557664 13.9225 1.11436 15.3031C2.48079 18.6925 4.52201 21.8338 7.56696 25.1999C11.2614 29.2564 15.7065 32.4596 20.7842 34.7167C22.7242 35.5621 25.3137 36.5626 28.2068 36.7332C28.384 36.741 28.5695 36.7488 28.7382 36.7488C30.6867 36.7488 32.323 36.105 33.6051 34.8252C33.6135 34.8097 33.6304 34.802 33.6388 34.7865C34.0774 34.2978 34.5835 33.8557 35.1149 33.3826C35.4776 33.0646 35.8487 32.7311 36.2114 32.3821C37.0465 31.5832 37.4851 30.6525 37.4851 29.6985C37.4851 28.7367 37.038 27.8137 36.1861 27.0381L31.5554 22.7645ZM34.5751 30.9317C34.5667 30.9317 34.5667 30.9394 34.5751 30.9317C34.2461 31.2574 33.9087 31.5522 33.546 31.8779C32.9978 32.3588 32.4411 32.8629 31.9181 33.4291C31.0662 34.2668 30.0625 34.6624 28.7467 34.6624C28.6201 34.6624 28.4852 34.6624 28.3587 34.6546C25.8535 34.5072 23.5255 33.6075 21.7795 32.8397C17.0055 30.7145 12.8134 27.6974 9.32982 23.8736C6.45357 20.6859 4.53044 17.7385 3.25679 14.574C2.47236 12.6428 2.18557 11.1381 2.3121 9.71872C2.39644 8.81125 2.77601 8.05891 3.47609 7.41515L6.35235 4.77032C6.76565 4.41354 7.20426 4.21964 7.63444 4.21964C8.16583 4.21964 8.596 4.51437 8.86591 4.76257C8.87435 4.77032 8.88278 4.77808 8.89122 4.78583C9.40574 5.22793 9.89495 5.68554 10.4095 6.17418C10.671 6.42237 10.9409 6.67057 11.2108 6.92652L13.5135 9.04394C14.4076 9.86608 14.4076 10.6262 13.5135 11.4483C13.2689 11.6733 13.0327 11.8982 12.7881 12.1154C12.0796 12.7824 11.4048 13.4029 10.671 14.0078C10.6541 14.0234 10.6372 14.0311 10.6288 14.0466C9.90339 14.7137 10.0383 15.3652 10.1902 15.8073C10.1986 15.8305 10.207 15.8538 10.2155 15.8771C10.8143 17.2111 11.6578 18.4676 12.9399 19.9645L12.9483 19.9723C15.2763 22.6094 17.7309 24.6647 20.4384 26.2392C20.7842 26.4409 21.1385 26.6038 21.4759 26.7589C21.7795 26.8985 22.0663 27.0304 22.3109 27.17C22.3447 27.1855 22.3784 27.2087 22.4122 27.2243C22.6989 27.3561 22.9688 27.4182 23.2472 27.4182C23.9473 27.4182 24.3859 27.0148 24.5293 26.883L27.414 24.2304C27.7008 23.9667 28.1562 23.6487 28.6876 23.6487C29.2106 23.6487 29.6407 23.9512 29.9022 24.2149C29.9107 24.2226 29.9107 24.2226 29.9191 24.2304L34.5667 28.504C35.4354 29.2951 35.4354 30.1095 34.5751 30.9317Z" fill="#01206C"/>
<path d="M21.5682 8.74145C23.7781 9.08272 25.7856 10.0445 27.3882 11.5181C28.9908 12.9918 30.0283 14.8378 30.4079 16.8699C30.5006 17.3818 30.9814 17.7385 31.5297 17.7385C31.5972 17.7385 31.6562 17.7308 31.7237 17.723C32.3479 17.63 32.7612 17.087 32.66 16.5131C32.2045 14.0544 30.9393 11.8129 29.0077 10.0367C27.0761 8.26057 24.6384 7.09715 21.9646 6.67832C21.3404 6.58525 20.7584 6.9653 20.6488 7.5315C20.5391 8.09769 20.944 8.64838 21.5682 8.74145Z" fill="#01206C"/>
<path d="M39.8876 16.2107C39.1369 12.162 37.0619 8.47788 33.8736 5.54607C30.6852 2.61426 26.6787 0.706257 22.2758 0.0159632C21.66 -0.0848662 21.078 0.302939 20.9684 0.869135C20.8671 1.44309 21.2804 1.97826 21.9046 2.07909C25.8352 2.69182 29.42 4.40592 32.271 7.01973C35.1219 9.64129 36.9776 12.9376 37.6439 16.552C37.7367 17.0639 38.2175 17.4207 38.7657 17.4207C38.8332 17.4207 38.8923 17.4129 38.9598 17.4052C39.5755 17.3198 39.9972 16.7769 39.8876 16.2107Z" fill="#01206C"/>
</svg>
