<svg width="21" height="21" viewBox="0 0 21 21" fill="none" xmlns="http://www.w3.org/2000/svg">
<g id="Group">
<g id="Group_2">
<path id="Vector" d="M16.0459 12.46C15.6299 12.0312 15.1281 11.802 14.5962 11.802C14.0687 11.802 13.5625 12.027 13.1293 12.4558L11.774 13.793C11.6625 13.7336 11.551 13.6784 11.4437 13.6232C11.2893 13.5468 11.1435 13.4746 11.0191 13.3982C9.74956 12.6001 8.59579 11.56 7.48921 10.2143C6.95308 9.54352 6.5928 8.97891 6.33116 8.4058C6.68287 8.0874 7.00884 7.75627 7.32623 7.43788C7.44632 7.31901 7.56642 7.1959 7.68651 7.07703C8.58722 6.18553 8.58722 5.03082 7.68651 4.13931L6.51559 2.98036C6.38263 2.84876 6.24538 2.71291 6.11671 2.57706C5.85937 2.31386 5.58915 2.04216 5.31037 1.78744C4.89433 1.3799 4.39679 1.16339 3.87353 1.16339C3.35026 1.16339 2.84415 1.3799 2.41524 1.78744C2.41095 1.79169 2.41095 1.79169 2.40666 1.79593L0.948378 3.25206C0.399376 3.79545 0.0862741 4.45771 0.0176489 5.2261C-0.0852889 6.46572 0.283571 7.62042 0.56665 8.37608C1.26148 10.2313 2.29944 11.9506 3.84779 13.793C5.72641 16.0133 7.98675 17.7666 10.5688 19.002C11.5553 19.4647 12.872 20.0123 14.3432 20.1057C14.4332 20.11 14.5276 20.1142 14.6134 20.1142C15.6041 20.1142 16.4362 19.7619 17.0882 19.0614C17.0924 19.0529 17.101 19.0487 17.1053 19.0402C17.3283 18.7727 17.5857 18.5307 17.8559 18.2718C18.0403 18.0977 18.2291 17.9152 18.4135 17.7241C18.8381 17.2869 19.0611 16.7774 19.0611 16.2553C19.0611 15.7289 18.8338 15.2237 18.4006 14.7991L16.0459 12.46ZM17.5814 16.9303C17.5771 16.9303 17.5771 16.9345 17.5814 16.9303C17.4141 17.1086 17.2426 17.2699 17.0581 17.4482C16.7793 17.7114 16.4963 17.9873 16.2303 18.2972C15.7971 18.7557 15.2867 18.9722 14.6177 18.9722C14.5533 18.9722 14.4847 18.9722 14.4204 18.968C13.1465 18.8873 11.9627 18.3949 11.0749 17.9746C8.64726 16.8114 6.51559 15.16 4.74421 13.0671C3.28163 11.3223 2.30373 9.70909 1.65607 7.97703C1.25719 6.91996 1.11136 6.09638 1.1757 5.3195C1.21859 4.8228 1.4116 4.41101 1.76759 4.05866L3.23016 2.61102C3.44033 2.41574 3.66336 2.30961 3.8821 2.30961C4.15232 2.30961 4.37106 2.47093 4.50831 2.60678C4.5126 2.61102 4.51689 2.61527 4.52118 2.61951C4.78281 2.86149 5.03158 3.11196 5.29321 3.37941C5.42617 3.51526 5.56342 3.65111 5.70067 3.7912L6.87159 4.95016C7.32623 5.40016 7.32623 5.81619 6.87159 6.26619C6.7472 6.3893 6.62711 6.51241 6.50273 6.63128C6.14245 6.99637 5.79932 7.33599 5.42617 7.66712C5.41759 7.67561 5.40901 7.67986 5.40472 7.68835C5.03586 8.05344 5.10449 8.41004 5.18169 8.65202C5.18598 8.66476 5.19027 8.67749 5.19456 8.69023C5.49908 9.42041 5.92799 10.1081 6.57993 10.9275L6.58422 10.9317C7.768 12.3751 9.01612 13.5001 10.3929 14.3619C10.5688 14.4723 10.7489 14.5614 10.9205 14.6463C11.0749 14.7227 11.2207 14.7949 11.3451 14.8713C11.3622 14.8798 11.3794 14.8925 11.3966 14.901C11.5424 14.9732 11.6796 15.0072 11.8212 15.0072C12.1772 15.0072 12.4002 14.7864 12.4731 14.7142L13.94 13.2624C14.0858 13.118 14.3174 12.944 14.5876 12.944C14.8536 12.944 15.0723 13.1095 15.2053 13.2539C15.2095 13.2581 15.2095 13.2581 15.2138 13.2624L17.5771 15.6015C18.0189 16.0345 18.0189 16.4803 17.5814 16.9303Z" fill="#DF042A"/>
<path id="Vector_2" d="M10.9673 4.78449C12.0911 4.97129 13.1119 5.4977 13.9268 6.3043C14.7418 7.11089 15.2693 8.12126 15.4623 9.23352C15.5095 9.51371 15.754 9.70899 16.0328 9.70899C16.0671 9.70899 16.0971 9.70475 16.1314 9.7005C16.4488 9.64956 16.659 9.35239 16.6075 9.03824C16.3759 7.69249 15.7325 6.46562 14.7503 5.49345C13.7681 4.52129 12.5286 3.8845 11.1689 3.65526C10.8515 3.60431 10.5556 3.81233 10.4998 4.12223C10.4441 4.43214 10.6499 4.73355 10.9673 4.78449Z" fill="#DF042A"/>
<path id="Vector_3" d="M20.2829 8.87283C19.9012 6.65681 18.8461 4.64031 17.2248 3.0356C15.6036 1.4309 13.5662 0.386565 11.3273 0.00873736C11.0142 -0.0464509 10.7183 0.165812 10.6625 0.475715C10.6111 0.789864 10.8212 1.08279 11.1386 1.13798C13.1373 1.47335 14.9602 2.41155 16.4099 3.8422C17.8596 5.2771 18.8032 7.08133 19.142 9.05962C19.1892 9.33981 19.4337 9.53509 19.7125 9.53509C19.7468 9.53509 19.7768 9.53084 19.8111 9.5266C20.1242 9.4799 20.3387 9.18273 20.2829 8.87283Z" fill="#DF042A"/>
</g>
</g>
</svg>
