<svg width="26" height="26" viewBox="0 0 26 26" fill="none" xmlns="http://www.w3.org/2000/svg">
<path d="M16.6642 10.1548H18.3987V7.13379C18.0995 7.09262 17.0703 7 15.8717 7C13.3709 7 11.6577 8.57304 11.6577 11.4642V14.125H8.89795V17.5022H11.6577V26H15.0413V17.503H17.6894L18.1098 14.1258H15.0405V11.7991C15.0413 10.823 15.3041 10.1548 16.6642 10.1548V10.1548Z" fill="white"/>
<g clip-path="url(#clip0_2110_27)">
<path d="M18.962 0H7.03795C3.15716 0 0 3.15716 0 7.03795V18.9622C0 22.8428 3.15716 26 7.03795 26H18.9622C22.8428 26 26 22.8428 26 18.9622V7.03795C26 3.15716 22.8428 0 18.962 0V0ZM24.4757 18.9622C24.4757 22.0023 22.0023 24.4757 18.962 24.4757H7.03795C3.99763 24.4757 1.52423 22.0023 1.52423 18.9622V7.03795C1.52423 3.99763 3.99763 1.52423 7.03795 1.52423H18.9622C22.0023 1.52423 24.4757 3.99763 24.4757 7.03795V18.9622Z" fill="white"/>
</g>
<defs>
<clipPath id="clip0_2110_27">
<rect width="26" height="26" fill="white"/>
</clipPath>
</defs>
</svg>
