<svg width="12" height="12" viewBox="0 0 12 12" fill="none" xmlns="http://www.w3.org/2000/svg">
<path d="M11 10V6.087C11 5.81476 10.9445 5.54539 10.8368 5.29537C10.729 5.04535 10.5714 4.81996 10.3735 4.633L6.687 1.149C6.50133 0.973466 6.25551 0.87566 6 0.87566C5.74449 0.87566 5.49867 0.973466 5.313 1.149L1.6265 4.633C1.42861 4.81996 1.27098 5.04535 1.16325 5.29537C1.05552 5.54539 0.999971 5.81476 1 6.087V10C1 10.2652 1.10536 10.5196 1.29289 10.7071C1.48043 10.8946 1.73478 11 2 11H10C10.2652 11 10.5196 10.8946 10.7071 10.7071C10.8946 10.5196 11 10.2652 11 10Z" stroke="black" stroke-linecap="round" stroke-linejoin="round"/>
</svg>
