<svg width="26" height="26" viewBox="0 0 26 26" fill="none" xmlns="http://www.w3.org/2000/svg">
<g id="instagram (5) 1" clip-path="url(#clip0_1806_874)">
<path id="Vector" d="M18.962 0H7.03795C3.15716 0 0 3.15716 0 7.03795V18.9622C0 22.8428 3.15716 26 7.03795 26H18.9622C22.8428 26 26 22.8428 26 18.9622V7.03795C26 3.15716 22.8428 0 18.962 0V0ZM24.4757 18.9622C24.4757 22.0023 22.0023 24.4757 18.962 24.4757H7.03795C3.99763 24.4757 1.52423 22.0023 1.52423 18.9622V7.03795C1.52423 3.99763 3.99763 1.52423 7.03795 1.52423H18.9622C22.0023 1.52423 24.4757 3.99763 24.4757 7.03795V18.9622Z" fill="white"/>
<path id="Vector_2" d="M13 5.89081C9.07996 5.89081 5.89087 9.07991 5.89087 13C5.89087 16.92 9.07996 20.1091 13 20.1091C16.9201 20.1091 20.1092 16.92 20.1092 13C20.1092 9.07991 16.9201 5.89081 13 5.89081V5.89081ZM13 18.5849C9.92063 18.5849 7.4151 16.0796 7.4151 13C7.4151 9.92057 9.92063 7.41504 13 7.41504C16.0796 7.41504 18.585 9.92057 18.585 13C18.585 16.0796 16.0796 18.5849 13 18.5849V18.5849Z" fill="white"/>
<path id="Vector_3" d="M20.2791 3.36604C19.1207 3.36604 18.1785 4.30847 18.1785 5.46671C18.1785 6.62516 19.1207 7.56758 20.2791 7.56758C21.4376 7.56758 22.38 6.62516 22.38 5.46671C22.38 4.30827 21.4376 3.36604 20.2791 3.36604ZM20.2791 6.04316C19.9614 6.04316 19.7027 5.78449 19.7027 5.46671C19.7027 5.14874 19.9614 4.89027 20.2791 4.89027C20.5971 4.89027 20.8558 5.14874 20.8558 5.46671C20.8558 5.78449 20.5971 6.04316 20.2791 6.04316Z" fill="white"/>
</g>
<defs>
<clipPath id="clip0_1806_874">
<rect width="26" height="26" fill="white"/>
</clipPath>
</defs>
</svg>
