<svg width="50" height="39" viewBox="0 0 50 39" fill="none" xmlns="http://www.w3.org/2000/svg">
<g clip-path="url(#clip0_95_1142)">
<path d="M50.0001 12.6748L13.4209 24.8233C10.3876 25.8243 7.83968 26.3264 5.77927 26.3264C3.44593 26.3264 1.75218 25.6894 0.702184 24.4138C0.0417671 23.5948 -0.151983 22.5564 0.11885 21.2971C0.389684 20.0377 1.11052 18.6971 2.27718 17.2703C3.2501 16.1166 4.84385 14.6004 7.0626 12.7203C6.31003 13.6444 5.75816 14.659 5.42927 15.7233C4.84593 17.6652 5.37093 19.0903 7.00427 20.0003C7.78135 20.4244 8.8501 20.6373 10.2126 20.6373C11.3001 20.6373 12.5251 20.5008 13.8876 20.2278L50.0001 12.6748Z" fill="#D8D8D8"/>
</g>
<defs>
<clipPath id="clip0_95_1142">
<rect width="50" height="39" fill="white"/>
</clipPath>
</defs>
</svg>
