<svg width="19" height="19" viewBox="0 0 19 19" fill="none" xmlns="http://www.w3.org/2000/svg">
<path d="M14.4215 11.2211C14.0476 10.8349 13.5966 10.6285 13.1186 10.6285C12.6444 10.6285 12.1895 10.8311 11.8002 11.2173L10.5821 12.4215C10.4818 12.368 10.3816 12.3183 10.2852 12.2686C10.1465 12.1998 10.0154 12.1348 9.90359 12.066C8.76255 11.3472 7.72559 10.4106 6.73104 9.19864C6.24918 8.59458 5.92537 8.0861 5.69023 7.56998C6.00632 7.28324 6.29929 6.98504 6.58455 6.6983C6.69249 6.59125 6.80043 6.48038 6.90836 6.37333C7.71789 5.57047 7.71789 4.53058 6.90836 3.72772L5.85598 2.684C5.73648 2.56549 5.61313 2.44315 5.49748 2.32081C5.26619 2.08377 5.02333 1.83909 4.77277 1.6097C4.39885 1.24268 3.95168 1.0477 3.48139 1.0477C3.01109 1.0477 2.55622 1.24268 2.17073 1.6097C2.16688 1.61353 2.16688 1.61353 2.16302 1.61735L0.852368 2.92869C0.358945 3.41805 0.0775401 4.01446 0.0158622 4.70645C-0.0766546 5.8228 0.254864 6.8627 0.509285 7.54322C1.13377 9.21393 2.06665 10.7623 3.45826 12.4215C5.14669 14.421 7.1782 16 9.49883 17.1125C10.3855 17.5293 11.5689 18.0224 12.8911 18.1066C12.9721 18.1104 13.0569 18.1142 13.134 18.1142C14.0244 18.1142 14.7723 17.7969 15.3582 17.1661C15.3621 17.1584 15.3698 17.1546 15.3736 17.1469C15.5741 16.9061 15.8054 16.6882 16.0483 16.455C16.214 16.2982 16.3836 16.1338 16.5494 15.9618C16.931 15.568 17.1315 15.1092 17.1315 14.639C17.1315 14.1649 16.9272 13.7099 16.5378 13.3276L14.4215 11.2211ZM15.8015 15.2468C15.7977 15.2468 15.7977 15.2507 15.8015 15.2468C15.6512 15.4074 15.497 15.5527 15.3312 15.7133C15.0807 15.9503 14.8263 16.1988 14.5873 16.4779C14.1979 16.8908 13.7392 17.0858 13.1378 17.0858C13.08 17.0858 13.0183 17.0858 12.9605 17.0819C11.8156 17.0093 10.7517 16.5658 9.95371 16.1873C7.77185 15.1398 5.85598 13.6526 4.26393 11.7678C2.94942 10.1965 2.07051 8.74368 1.48842 7.18384C1.12992 6.23188 0.998853 5.49019 1.05668 4.79055C1.09522 4.34325 1.26869 3.9724 1.58865 3.65508L2.90316 2.35139C3.09205 2.17553 3.2925 2.07995 3.4891 2.07995C3.73195 2.07995 3.92855 2.22523 4.05191 2.34757C4.05576 2.35139 4.05962 2.35521 4.06347 2.35904C4.29862 2.57696 4.5222 2.80252 4.75735 3.04338C4.87685 3.16572 5.0002 3.28806 5.12356 3.41422L6.17594 4.45794C6.58455 4.86319 6.58455 5.23786 6.17594 5.64312C6.06415 5.75399 5.95621 5.86486 5.84442 5.9719C5.52061 6.30069 5.21222 6.60655 4.87685 6.90475C4.86914 6.9124 4.86143 6.91622 4.85757 6.92387C4.52606 7.25266 4.58773 7.5738 4.65712 7.79172C4.66098 7.80319 4.66483 7.81466 4.66869 7.82613C4.94238 8.48371 5.32787 9.10306 5.91381 9.84092L5.91766 9.84475C6.98161 11.1446 8.10337 12.1577 9.34078 12.9338C9.49883 13.0332 9.66074 13.1135 9.81493 13.19C9.95371 13.2588 10.0848 13.3238 10.1966 13.3926C10.212 13.4003 10.2274 13.4117 10.2428 13.4194C10.3739 13.4844 10.4972 13.515 10.6245 13.515C10.9444 13.515 11.1449 13.3162 11.2104 13.2512L12.5288 11.9436C12.6598 11.8137 12.868 11.6569 13.1108 11.6569C13.3498 11.6569 13.5464 11.806 13.6659 11.936C13.6698 11.9398 13.6698 11.9398 13.6737 11.9436L15.7977 14.0502C16.1947 14.4402 16.1947 14.8416 15.8015 15.2468Z" fill="white"/>
<path d="M9.85732 4.30876C10.8673 4.47698 11.7848 4.95105 12.5172 5.67745C13.2496 6.40384 13.7238 7.31375 13.8973 8.31542C13.9397 8.56774 14.1594 8.74361 14.41 8.74361C14.4408 8.74361 14.4678 8.73978 14.4986 8.73596C14.7839 8.69008 14.9728 8.42246 14.9265 8.13955C14.7183 6.92762 14.1401 5.82273 13.2573 4.94723C12.3746 4.07173 11.2605 3.49826 10.0385 3.29181C9.75324 3.24593 9.48725 3.43326 9.43714 3.71235C9.38702 3.99144 9.57206 4.26289 9.85732 4.30876Z" fill="white"/>
<path d="M18.2301 7.99059C17.887 5.99491 16.9387 4.17892 15.4816 2.73378C14.0244 1.28863 12.1934 0.348138 10.1811 0.00787812C9.89972 -0.0418227 9.63374 0.149334 9.58362 0.428423C9.53736 0.711336 9.72625 0.975132 10.0115 1.02483C11.8079 1.32686 13.4462 2.17178 14.7492 3.46017C16.0521 4.75239 16.9002 6.37723 17.2047 8.15881C17.2471 8.41114 17.4668 8.587 17.7174 8.587C17.7482 8.587 17.7752 8.58318 17.8061 8.57936C18.0875 8.5373 18.2802 8.26968 18.2301 7.99059Z" fill="white"/>
</svg>
