<svg width="19" height="19" viewBox="0 0 19 19" fill="none" xmlns="http://www.w3.org/2000/svg">
<path d="M14.9658 1.1875H10.404C10.2622 1.1874 10.1261 1.24343 10.0255 1.34336L0.905471 10.4611C0.705827 10.6618 0.59375 10.9333 0.59375 11.2163C0.59375 11.4993 0.705827 11.7709 0.905471 11.9715L5.24727 16.3133C5.44796 16.5129 5.71953 16.625 6.00263 16.625C6.28572 16.625 6.5573 16.5129 6.75799 16.3133L15.8754 7.19922C15.9753 7.0986 16.0314 6.96251 16.0313 6.8207V2.25625C16.0319 2.11599 16.0049 1.97698 15.9516 1.84722C15.8984 1.71746 15.82 1.59952 15.7209 1.50019C15.6219 1.40085 15.5042 1.32208 15.3746 1.26842C15.245 1.21476 15.1061 1.18726 14.9658 1.1875V1.1875Z" stroke="black" stroke-linecap="round" stroke-linejoin="round"/>
<path d="M13.0625 5.34375C12.8276 5.34375 12.598 5.27411 12.4028 5.14362C12.2075 5.01314 12.0553 4.82767 11.9654 4.61069C11.8755 4.3937 11.852 4.15493 11.8978 3.92458C11.9436 3.69423 12.0567 3.48264 12.2228 3.31656C12.3889 3.15049 12.6005 3.03739 12.8308 2.99157C13.0612 2.94575 13.3 2.96926 13.5169 3.05914C13.7339 3.14902 13.9194 3.30123 14.0499 3.49651C14.1804 3.69179 14.25 3.92139 14.25 4.15625C14.25 4.4712 14.1249 4.77324 13.9022 4.99594C13.6795 5.21864 13.3774 5.34375 13.0625 5.34375Z" fill="black"/>
</svg>
