<svg width="53" height="39" viewBox="0 0 53 39" fill="none" xmlns="http://www.w3.org/2000/svg">
<g clip-path="url(#clip0_95_1144)">
<path d="M52.6579 4.88797C51.737 4.02185 50.1272 4.71572 49.4183 5.01797C44.3744 7.20522 43.6302 11.0565 41.8724 13.2681C40.49 15.0394 38.2242 16.3393 36.1749 16.4401C34.66 16.5197 33.017 16.3036 31.3872 15.782C27.3968 14.5128 25.2481 12.87 24.7247 12.5807C23.6492 11.9795 15.3834 6.05635 8.64802 5.81422C8.64802 5.81422 7.82652 4.59547 7.62115 4.57435C7.1309 4.53372 6.6274 5.30722 6.26081 5.38847C5.92956 5.4746 5.34877 4.55647 5.01311 4.5971C4.67523 4.6296 4.34619 5.54935 3.68811 6.02222C3.20227 6.36835 2.61486 6.34722 2.2814 6.7746C2.16656 6.9306 2.20631 7.20523 2.07602 7.4571C1.79556 7.9771 0.859231 8.03235 0.850397 8.58972C0.850397 9.20885 1.63877 9.32747 2.32777 9.75972C2.87544 10.1042 2.91298 10.348 3.55119 10.5088C4.12094 10.6518 4.94686 10.205 5.68002 10.3658C6.29173 10.4975 6.87915 10.5934 7.00944 11.0532C7.12869 11.4692 7.00944 12.1225 6.25861 12.0493C6.01127 12.025 4.93802 11.7666 3.61302 11.8706C2.01198 11.9957 0.183481 12.3727 0.00460565 13.6743C-0.085936 14.4007 1.13969 15.2506 2.3344 15.0816C3.15369 14.9662 2.76723 14.2593 3.21552 13.9181C3.80515 13.4793 7.12869 15.4521 10.2204 15.4521C11.5299 15.4521 12.4971 15.2084 13.46 14.469C13.5483 14.4219 13.6654 14.3032 13.8023 14.2902C13.9558 14.3195 14.1014 14.3679 14.2329 14.4332C16.7305 15.8909 18.6142 18.8207 27.77 18.8548C29.0552 18.8662 30.5304 19.3082 31.7362 20.1175C32.7962 20.8211 33.4233 21.9456 34.0262 23.0831C34.9493 24.7942 36.5901 26.4452 39.0877 28.288C39.2202 28.3985 41.2739 29.5555 41.4285 29.6416C41.455 29.6578 41.614 29.913 41.5456 30.056C41.5014 31.1772 41.2739 34.3947 44.5599 34.5296C45.3682 34.5621 45.1672 34.1542 45.1672 33.8634C45.1562 33.3092 45.0237 32.7502 45.4168 32.1733C45.9755 31.3966 44.2552 31.0212 44.2927 29.3198C44.3347 28.0458 42.8684 28.262 42.1197 27.2886C41.7002 26.7312 41.3071 26.4241 41.3468 25.7513C41.508 21.8838 40.2051 19.3359 39.5691 18.72C39.0678 18.2422 38.635 18.0651 39.112 17.8425C41.8503 16.5181 42.4797 15.2847 42.4797 15.2847C43.9372 12.7806 45.2534 10.4991 47.062 9.48347C47.4286 9.28847 48.3627 8.76847 48.9435 8.57347C50.6284 7.98522 51.5339 7.63422 52.0087 7.29297C52.7948 6.74535 53.4109 5.58185 52.6579 4.88797V4.88797Z" fill="#D8D8D8"/>
</g>
<defs>
<clipPath id="clip0_95_1144">
<rect width="53" height="39" fill="white"/>
</clipPath>
</defs>
</svg>
