<svg width="42" height="34" viewBox="0 0 42 34" fill="none" xmlns="http://www.w3.org/2000/svg">
<path d="M0.9375 33.25V23.9375C0.9375 21.2292 1.45833 18.4375 2.5 15.5625C3.54167 12.6875 4.91667 9.97917 6.625 7.4375C8.33333 4.85417 10.2083 2.66667 12.25 0.875L20.625 5.75C19.125 8.25 17.8333 10.9375 16.75 13.8125C15.6667 16.6875 15.125 20.0625 15.125 23.9375V33.25H0.9375ZM22.1875 33.25V23.9375C22.1875 21.2292 22.7083 18.4375 23.75 15.5625C24.7917 12.6875 26.1667 9.97917 27.875 7.4375C29.5833 4.85417 31.4583 2.66667 33.5 0.875L41.875 5.75C40.375 8.25 39.0833 10.9375 38 13.8125C36.9167 16.6875 36.375 20.0625 36.375 23.9375V33.25H22.1875Z" fill="white"/>
</svg>
