<svg width="51" height="39" viewBox="0 0 51 39" fill="none" xmlns="http://www.w3.org/2000/svg">
<path d="M31.8559 18.6553C37.706 16.8678 41.3483 15.8408 51 14.0403C45.7576 14.3052 34.1657 14.9129 26.1757 16.1057L31.8559 18.6569V18.6553ZM13.6659 24.5898H21.3159C22.831 22.8348 24.3376 21.98 26.0929 21.0294C24.7598 20.6352 23.4195 20.2555 22.0724 19.8903C17.1913 21.538 14.4755 23.7497 13.6723 24.5898H13.6659ZM15.1789 18.2068C8.35763 20.0707 4.56663 22.0954 2.006 24.5898H10.4529C11.2753 23.7139 14.4096 21.1887 20.298 19.432C18.6029 18.9948 16.8954 18.5863 15.1768 18.2068H15.1789ZM18.6787 14.2808H0C18.8318 16.8808 27.9076 20.2283 42.5 24.9603C41.2526 24.2469 21.1416 15.1892 18.6809 14.2808" fill="#DF042A"/>
</svg>
