<svg width="23" height="23" viewBox="0 0 23 23" fill="none" xmlns="http://www.w3.org/2000/svg">
<path d="M22.8596 21.5045L16.1783 14.8232C17.4455 13.2587 18.2084 11.2697 18.2084 9.1042C18.2084 4.08417 14.1242 0 9.10415 0C4.08413 0 0 4.08417 0 9.1042C0 14.1242 4.08417 18.2084 9.1042 18.2084C11.2697 18.2084 13.2587 17.4455 14.8232 16.1783L21.5045 22.8597C21.6917 23.0468 21.995 23.0468 22.1822 22.8597L22.8597 22.1821C23.0468 21.995 23.0468 21.6916 22.8596 21.5045ZM9.1042 16.2917C5.14078 16.2917 1.91669 13.0676 1.91669 9.1042C1.91669 5.14078 5.14078 1.91669 9.1042 1.91669C13.0676 1.91669 16.2917 5.14078 16.2917 9.1042C16.2917 13.0676 13.0676 16.2917 9.1042 16.2917Z" fill="white"/>
</svg>
