<svg width="18" height="18" viewBox="0 0 18 18" fill="none" xmlns="http://www.w3.org/2000/svg">
<g clip-path="url(#clip0_188_29)">
<path d="M15.7499 6.46172V2.1375C15.7506 1.93075 15.7104 1.72591 15.6317 1.53474C15.553 1.34357 15.4373 1.16982 15.2912 1.02348C15.1452 0.877142 14.9716 0.761087 14.7806 0.681979C14.5896 0.602872 14.3849 0.562269 14.1781 0.562501H9.85635C9.57297 0.563084 9.30125 0.675386 9.10014 0.87504L0.460141 9.51258C0.165467 9.8082 0 10.2086 0 10.626C0 11.0434 0.165467 11.4438 0.460141 11.7394L4.57342 15.8527C4.86894 16.1474 5.26927 16.3129 5.68665 16.3129C6.10402 16.3129 6.50435 16.1474 6.79987 15.8527L15.4374 7.21793C15.6371 7.01687 15.7494 6.74512 15.7499 6.46172ZM12.3749 5.0625C12.1524 5.0625 11.9349 4.99652 11.7499 4.8729C11.5649 4.74929 11.4207 4.57359 11.3356 4.36802C11.2504 4.16245 11.2282 3.93625 11.2716 3.71802C11.315 3.4998 11.4221 3.29934 11.5795 3.14201C11.7368 2.98467 11.9372 2.87753 12.1555 2.83412C12.3737 2.79071 12.5999 2.81299 12.8055 2.89814C13.011 2.98329 13.1867 3.12748 13.3103 3.31248C13.434 3.49749 13.4999 3.715 13.4999 3.9375C13.4999 4.23587 13.3814 4.52202 13.1704 4.733C12.9595 4.94397 12.6733 5.0625 12.3749 5.0625Z" fill="black"/>
<path d="M17.4379 2.25C17.2887 2.25 17.1457 2.30926 17.0402 2.41475C16.9347 2.52024 16.8754 2.66332 16.8754 2.8125V7.29035L7.68874 16.4774C7.63431 16.5291 7.59078 16.5912 7.56072 16.66C7.53066 16.7288 7.51468 16.8029 7.51372 16.878C7.51276 16.9531 7.52683 17.0276 7.55512 17.0971C7.58341 17.1667 7.62533 17.2298 7.67842 17.2829C7.73151 17.336 7.7947 17.3779 7.86424 17.4062C7.93379 17.4345 8.0083 17.4486 8.08337 17.4476C8.15845 17.4467 8.23257 17.4307 8.30137 17.4006C8.37017 17.3706 8.43226 17.327 8.48397 17.2726L17.6949 8.06168C17.7929 7.96324 17.8703 7.84633 17.9228 7.71773C17.9752 7.58912 18.0016 7.45138 18.0004 7.3125V2.8125C18.0004 2.66332 17.9412 2.52024 17.8357 2.41475C17.7302 2.30926 17.5871 2.25 17.4379 2.25Z" fill="black"/>
</g>
<defs>
<clipPath id="clip0_188_29">
<rect width="18" height="18" fill="white"/>
</clipPath>
</defs>
</svg>
