<svg width="38" height="38" viewBox="0 0 38 38" fill="none" xmlns="http://www.w3.org/2000/svg">
<path d="M30.5842 20.3591C30.7109 19.6621 30.7789 18.9497 30.7789 18.2372C30.7789 16.6575 30.4699 15.1242 29.8612 13.6838C29.2741 12.29 28.4306 11.0385 27.3585 9.9637C26.2953 8.89511 25.0349 8.04401 23.6476 7.45778C22.2078 6.84757 20.6814 6.53781 19.1056 6.53781C18.3641 6.53781 17.6194 6.60906 16.8964 6.74845C15.896 6.21698 14.7812 5.9384 13.649 5.93689C11.8044 5.93689 10.068 6.65862 8.76407 7.96578C8.12066 8.60749 7.61052 9.3707 7.26314 10.2113C6.91576 11.0519 6.73804 11.9531 6.74025 12.863C6.74025 14.0401 7.04305 15.1985 7.60849 16.2207C7.49416 16.8836 7.43237 17.562 7.43237 18.2372C7.43237 19.817 7.74135 21.3503 8.35004 22.7906C8.9371 24.1845 9.77752 25.4359 10.8497 26.5108C11.9218 27.5856 13.1701 28.4282 14.5605 29.0167C16.0004 29.6269 17.5267 29.9367 19.1025 29.9367C19.7885 29.9367 20.4744 29.8747 21.148 29.7539C22.183 30.3393 23.351 30.6522 24.5467 30.6522C26.3913 30.6522 28.1278 29.9336 29.4317 28.6233C30.7387 27.3161 31.4555 25.5753 31.4555 23.7261C31.4586 22.549 31.1558 21.3874 30.5842 20.3591ZM27.8621 27.0498C26.9753 27.9418 25.8043 28.4251 24.5498 28.4251C23.7434 28.4251 22.9493 28.2144 22.2448 27.8148L21.5496 27.4215L20.7617 27.5608C20.2118 27.66 19.6556 27.7095 19.1056 27.7095C17.8264 27.7095 16.5936 27.4586 15.4257 26.963C14.3041 26.4891 13.2937 25.8076 12.4224 24.9341C11.5599 24.0724 10.8725 23.0509 10.3986 21.9264C9.9042 20.7586 9.65702 19.5227 9.65702 18.2403C9.65702 17.7014 9.70646 17.15 9.79915 16.6048L9.9351 15.8273L9.55197 15.1366C9.16553 14.4414 8.96241 13.6589 8.96182 12.863C8.96182 11.6054 9.44691 10.4314 10.3337 9.54243C11.2235 8.65344 12.3946 8.16712 13.649 8.16712C14.4185 8.1692 15.1757 8.35953 15.8551 8.72158L16.5473 9.08709L17.3135 8.93841C17.8975 8.8269 18.5 8.76804 19.1056 8.76804C20.3848 8.76804 21.6176 9.01895 22.7825 9.51146C23.9102 9.98848 24.9175 10.6699 25.7857 11.5403C26.6571 12.4108 27.3368 13.4237 27.8127 14.5512C28.307 15.7189 28.5542 16.9549 28.5542 18.2372C28.5542 18.8072 28.5017 19.3833 28.3966 19.9564L28.2514 20.7462L28.6407 21.4463C29.03 22.1432 29.234 22.9331 29.234 23.7292C29.234 24.9899 28.7489 26.1608 27.8621 27.0498ZM21.3055 16.8774L18.5742 16.2703C17.536 16.0318 16.3402 15.7189 16.3402 14.737C16.3402 13.7551 17.1776 13.0674 18.6916 13.0674C21.7412 13.0674 21.4631 15.1676 22.9771 15.1676C23.7743 15.1676 24.4726 14.6967 24.4726 13.8914C24.4726 12.0081 21.4631 10.5925 18.911 10.5925C16.1394 10.5925 13.1887 11.7727 13.1887 14.9136C13.1887 16.4252 13.7263 18.0359 16.6987 18.7824L20.3879 19.7055C21.5033 19.9812 21.7845 20.61 21.7845 21.1799C21.7845 22.1247 20.8483 23.0477 19.152 23.0477C15.8397 23.0477 16.3001 20.4923 14.5265 20.4923C13.7294 20.4923 13.1516 21.0436 13.1516 21.8273C13.1516 23.3575 15.0055 25.4019 19.152 25.4019C23.0976 25.4019 25.0535 23.4969 25.0535 20.9414C25.0535 19.2966 24.2965 17.5465 21.3055 16.8774Z" fill="black"/>
</svg>
