<svg width="26" height="26" viewBox="0 0 26 26" fill="none" xmlns="http://www.w3.org/2000/svg">
<path d="M18.962 0H7.03795C3.15716 0 0 3.15716 0 7.03795V18.9622C0 22.8428 3.15716 26 7.03795 26H18.9622C22.8428 26 26 22.8428 26 18.9622V7.03795C26 3.15716 22.8428 0 18.962 0V0ZM24.4757 18.9622C24.4757 22.0023 22.0023 24.4757 18.962 24.4757H7.03795C3.99763 24.4757 1.52423 22.0023 1.52423 18.9622V7.03795C1.52423 3.99763 3.99763 1.52423 7.03795 1.52423H18.9622C22.0023 1.52423 24.4757 3.99763 24.4757 7.03795V18.9622Z" fill="white"/>
<path d="M15.8463 6.53257L15.5112 6H13.4836V10.7966L13.4767 15.4818C13.4801 15.5167 13.4836 15.5549 13.4836 15.5898C13.4836 16.7628 12.5371 17.72 11.3696 17.72C10.2021 17.72 9.25561 16.7663 9.25561 15.5898C9.25561 14.4167 10.2021 13.4595 11.3696 13.4595C11.6114 13.4595 11.8463 13.5047 12.0639 13.5813V11.2422C11.8394 11.2039 11.6079 11.183 11.3696 11.183C8.962 11.1865 7 13.1636 7 15.5932C7 18.0229 8.962 20 11.3731 20C13.7841 20 15.7461 18.0229 15.7461 15.5932V10.0204C16.62 10.901 17.7496 11.7608 19 12.0358V9.64446C17.6425 9.03879 16.2919 7.24963 15.8463 6.53257Z" stroke="white" stroke-width="0.5"/>
</svg>
