<svg width="31" height="31" viewBox="0 0 31 31" fill="none" xmlns="http://www.w3.org/2000/svg">
<path d="M15.5007 3.875C16.8709 3.875 18.1851 4.41934 19.154 5.38828C20.123 6.35722 20.6673 7.67138 20.6673 9.04167C20.6673 9.98458 20.4219 10.8629 19.9698 11.625H23.2507C24.4777 11.625 25.5111 12.4904 25.7694 13.64C28.3657 23.9862 28.4173 24.2575 28.4173 24.5417C28.4173 25.2268 28.1451 25.8839 27.6607 26.3684C27.1762 26.8528 26.5191 27.125 25.834 27.125H5.16732C4.48218 27.125 3.82509 26.8528 3.34063 26.3684C2.85616 25.8839 2.58398 25.2268 2.58398 24.5417C2.58398 24.2575 2.63565 23.9862 5.2319 13.64C5.49023 12.4904 6.52357 11.625 7.75065 11.625H11.0315C10.5698 10.8428 10.3287 9.94999 10.334 9.04167C10.334 7.67138 10.8783 6.35722 11.8473 5.38828C12.8162 4.41934 14.1304 3.875 15.5007 3.875ZM15.5007 6.45833C14.8155 6.45833 14.1584 6.7305 13.674 7.21497C13.1895 7.69944 12.9173 8.35652 12.9173 9.04167C12.9173 9.72681 13.1895 10.3839 13.674 10.8684C14.1584 11.3528 14.8155 11.625 15.5007 11.625C16.1858 11.625 16.8429 11.3528 17.3273 10.8684C17.8118 10.3839 18.084 9.72681 18.084 9.04167C18.084 8.35652 17.8118 7.69944 17.3273 7.21497C16.8429 6.7305 16.1858 6.45833 15.5007 6.45833ZM7.75065 14.2083V24.5417H10.334V21.3125L11.6257 22.6042V24.5417H14.209V21.9583L11.6257 19.375L14.209 16.7917V14.2083H11.6257V16.1458L10.334 17.4375V14.2083H7.75065ZM19.3757 14.2083C17.9419 14.2083 16.7923 15.3579 16.7923 16.7917V21.9583C16.7923 23.3921 17.9419 24.5417 19.3757 24.5417H23.2507V18.0833H20.6673V21.9583H19.3757V16.7917H23.2507V14.2083H19.3757Z" fill="black"/>
</svg>
