<svg width="26" height="26" viewBox="0 0 26 26" fill="none" xmlns="http://www.w3.org/2000/svg">
<g clip-path="url(#clip0_2110_28)">
<path d="M18.962 0H7.03795C3.15716 0 0 3.15716 0 7.03795V18.9622C0 22.8428 3.15716 26 7.03795 26H18.9622C22.8428 26 26 22.8428 26 18.9622V7.03795C26 3.15716 22.8428 0 18.962 0V0ZM24.4757 18.9622C24.4757 22.0023 22.0023 24.4757 18.962 24.4757H7.03795C3.99763 24.4757 1.52423 22.0023 1.52423 18.9622V7.03795C1.52423 3.99763 3.99763 1.52423 7.03795 1.52423H18.9622C22.0023 1.52423 24.4757 3.99763 24.4757 7.03795V18.9622Z" fill="white"/>
<path d="M20 13L9 8V18L20 13Z" stroke="white"/>
</g>
<path d="M20 13L9 8V18L20 13Z" stroke="white"/>
<defs>
<clipPath id="clip0_2110_28">
<rect width="26" height="26" fill="white"/>
</clipPath>
</defs>
</svg>
